# xmcd
#
# Track frame offsets:
#	150
#	13097
#	26195
#	37967
#	49195
#	62010
#	75317
#	86677
#	98020
#	111977
#	124215
#	136845
#	152322
#	167230
#	173340
#	223440
#	228567
#	246187
#	268505
#	281587
#	295750
#	310010
#	316280
#	331127
#
# Disc length: 4477 seconds
#
# Revision: 1
# Processed by: cddbd v1.5.1PL0 Copyright (c) Steve Scherf et al.
# Submitted via: CDex 1.50Beta5
#
DISCID=47117b18
DTITLE=スクールメイツ - ベスト・オブ・スクールメイツ
DYEAR=2002
DGENRE=Pop
TTITLE0=若いってすばらしい
TTITLE1=恋のジェンカ
TTITLE2=愛するときに世界はまわる
TTITLE3=幸せをありがとう
TTITLE4=虹と雪のバラード
TTITLE5=僕らの次元
TTITLE6=愛するハーモニー
TTITLE7=夜明けの海へ
TTITLE8=明日への出発
TTITLE9=夜明けが来る前に〜「セイ！ヤング」のテーマ
TTITLE10=恋のランナー
TTITLE11=Jump Jump '75
TTITLE12=オープニング
TTITLE13=青春はリズムにのって
TTITLE14=ポップス・メドレー
TTITLE15=思い出そうよ子供のころを
TTITLE16=メドレー
TTITLE17=メドレー2
TTITLE18=「愛・花・太陽」より愛
TTITLE19=「愛・花・太陽」より花
TTITLE20=「愛・花・太陽」より太陽
TTITLE21=フィナーレ（太陽）
TTITLE22=オープニング（ボーカル）
TTITLE23=愛するハーモニー (CM Version)
EXTD=
EXTT0=
EXTT1=
EXTT2=
EXTT3=
EXTT4=
EXTT5=
EXTT6=
EXTT7=
EXTT8=
EXTT9=
EXTT10=
EXTT11=
EXTT12=
EXTT13=
EXTT14=
EXTT15=
EXTT16=
EXTT17=
EXTT18=
EXTT19=
EXTT20=
EXTT21=
EXTT22=
EXTT23=
PLAYORDER=
